<?xml version="1.0" encoding="UTF-8" standalone="no"?>
<svg
   xmlns:dc="http://purl.org/dc/elements/1.1/"
   xmlns:cc="http://creativecommons.org/ns#"
   xmlns:rdf="http://www.w3.org/1999/02/22-rdf-syntax-ns#"
   xmlns:svg="http://www.w3.org/2000/svg"
   xmlns="http://www.w3.org/2000/svg"
   xmlns:xlink="http://www.w3.org/1999/xlink"
   xmlns:sodipodi="http://sodipodi.sourceforge.net/DTD/sodipodi-0.dtd"
   xmlns:inkscape="http://www.inkscape.org/namespaces/inkscape"
   version="1.1"
   id="Layer_1"
   x="0px"
   y="0px"
   viewBox="0 0 512 512"
   style="enable-background:new 0 0 512 512;"
   xml:space="preserve"
   sodipodi:docname="_logo3.svg"
   inkscape:version="1.0.1 (3bc2e813f5, 2020-09-07)"><metadata
   id="metadata55"><rdf:RDF><cc:Work
       rdf:about=""><dc:format>image/svg+xml</dc:format><dc:type
         rdf:resource="http://purl.org/dc/dcmitype/StillImage" /><dc:title></dc:title></cc:Work></rdf:RDF></metadata><defs
   id="defs53"><linearGradient
     id="linearGradient2795"><stop
       style="stop-color:#b8b8b8;stop-opacity:0.49803922;"
       offset="0"
       id="stop2797" /><stop
       style="stop-color:#7f7f7f;stop-opacity:0;"
       offset="1"
       id="stop2799" /></linearGradient><linearGradient
     id="linearGradient2787"><stop
       style="stop-color:#7f7f7f;stop-opacity:0.5;"
       offset="0"
       id="stop2789" /><stop
       style="stop-color:#7f7f7f;stop-opacity:0;"
       offset="1"
       id="stop2791" /></linearGradient><linearGradient
     id="linearGradient3676"><stop
       style="stop-color:#b2b2b2;stop-opacity:0.5;"
       offset="0"
       id="stop3678" /><stop
       style="stop-color:#b3b3b3;stop-opacity:0;"
       offset="1"
       id="stop3680" /></linearGradient><linearGradient
     id="linearGradient3236"><stop
       style="stop-color:#f4f4f4;stop-opacity:1"
       offset="0"
       id="stop3244" /><stop
       style="stop-color:white;stop-opacity:1"
       offset="1"
       id="stop3240" /></linearGradient><linearGradient
     id="linearGradient4671"><stop
       style="stop-color:#ffd43b;stop-opacity:1;"
       offset="0"
       id="stop4673" /><stop
       style="stop-color:#ffe873;stop-opacity:1"
       offset="1"
       id="stop4675" /></linearGradient><linearGradient
     id="linearGradient4689"><stop
       style="stop-color:#5a9fd4;stop-opacity:1;"
       offset="0"
       id="stop4691" /><stop
       style="stop-color:#306998;stop-opacity:1;"
       offset="1"
       id="stop4693" /></linearGradient><linearGradient
     x1="224.23996"
     y1="144.75717"
     x2="-65.308502"
     y2="144.75717"
     id="linearGradient2987"
     xlink:href="#linearGradient4671"
     gradientUnits="userSpaceOnUse"
     gradientTransform="translate(100.2702,99.61116)" /><linearGradient
     x1="172.94208"
     y1="77.475983"
     x2="26.670298"
     y2="76.313133"
     id="linearGradient2990"
     xlink:href="#linearGradient4689"
     gradientUnits="userSpaceOnUse"
     gradientTransform="translate(100.2702,99.61116)" /><linearGradient
     inkscape:collect="always"
     xlink:href="#linearGradient4671"
     id="linearGradient2255"
     gradientUnits="userSpaceOnUse"
     gradientTransform="matrix(0.562541,0,0,0.567972,-11.5974,-7.60954)"
     x1="224.23996"
     y1="144.75717"
     x2="-65.308502"
     y2="144.75717" /><linearGradient
     inkscape:collect="always"
     xlink:href="#linearGradient4689"
     id="linearGradient2258"
     gradientUnits="userSpaceOnUse"
     gradientTransform="matrix(0.562541,0,0,0.567972,-11.5974,-7.60954)"
     x1="172.94208"
     y1="76.176224"
     x2="26.670298"
     y2="76.313133" /><radialGradient
     inkscape:collect="always"
     xlink:href="#linearGradient2795"
     id="radialGradient2801"
     cx="61.518883"
     cy="132.28575"
     fx="61.518883"
     fy="132.28575"
     r="29.036913"
     gradientTransform="matrix(1,0,0,0.177966,0,108.7434)"
     gradientUnits="userSpaceOnUse" /><radialGradient
     inkscape:collect="always"
     xlink:href="#linearGradient2795"
     id="radialGradient1480"
     gradientUnits="userSpaceOnUse"
     gradientTransform="matrix(1.7490565e-8,-0.23994696,1.054668,3.7915457e-7,-83.7008,142.46201)"
     cx="61.518883"
     cy="132.28575"
     fx="61.518883"
     fy="132.28575"
     r="29.036913" /></defs><sodipodi:namedview
   pagecolor="#ffffff"
   bordercolor="#666666"
   borderopacity="1"
   objecttolerance="10"
   gridtolerance="10"
   guidetolerance="10"
   inkscape:pageopacity="0"
   inkscape:pageshadow="2"
   inkscape:window-width="1440"
   inkscape:window-height="2531"
   id="namedview51"
   showgrid="false"
   inkscape:zoom="0.69605824"
   inkscape:cx="307.51169"
   inkscape:cy="359.17158"
   inkscape:window-x="-9"
   inkscape:window-y="-9"
   inkscape:window-maximized="1"
   inkscape:current-layer="Layer_1"
   inkscape:document-rotation="0" />
<path
   style="fill:#f5f5f5;fill-opacity:1"
   d="M511.344,274.266C511.77,268.231,512,262.143,512,256C512,114.615,397.385,0,256,0S0,114.615,0,256  c0,117.769,79.53,216.949,187.809,246.801L511.344,274.266z"
   id="path2" />
<path
   style="fill:#252727;fill-opacity:1"
   d="M 511.344,274.266 392.90497,85.333328 119.096,434.087 187.81,502.801 C 209.522,508.787 232.385,512 256,512 391.243,512 501.976,407.125 511.344,274.266 Z"
   id="path4"
   sodipodi:nodetypes="ccccsc" />



<rect
   x="119.096"
   y="311.652"
   style="fill:#ffffff"
   width="273.809"
   height="122.435"
   id="rect12" />

<g
   id="g20">
</g>
<g
   id="g22">
</g>
<g
   id="g24">
</g>
<g
   id="g26">
</g>
<g
   id="g28">
</g>
<g
   id="g30">
</g>
<g
   id="g32">
</g>
<g
   id="g34">
</g>
<g
   id="g36">
</g>
<g
   id="g38">
</g>
<g
   id="g40">
</g>
<g
   id="g42">
</g>
<g
   id="g44">
</g>
<g
   id="g46">
</g>
<g
   id="g48">
</g>
<g
   id="t00l-wordmark"
   aria-label="T00L"
   transform="translate(137.2,411) scale(0.12,-0.12)"
   style="fill:#000000;fill-opacity:1;stroke:none">
  <path
     d="M191 0V528H23V623H476V528H299V0Z" />
  <path
     d="M750 -12Q652 -12 594.5 71Q537 154 537 308Q537 460 594.5 546Q652 632 750 632Q848 632 905.5 546Q963 460 963 308Q963 154 905.5 71Q848 -12 750 -12ZM642 308Q642 267 646 232L838 460Q811 541 750 541Q696 541 669 479.5Q642 418 642 308ZM750 75Q804 75 831 135.5Q858 196 858 308Q858 347 854 381L662 154Q689 75 750 75Z" />
  <path
     d="M1250 -12Q1152 -12 1094.5 71Q1037 154 1037 308Q1037 460 1094.5 546Q1152 632 1250 632Q1348 632 1405.5 546Q1463 460 1463 308Q1463 154 1405.5 71Q1348 -12 1250 -12ZM1142 308Q1142 267 1146 232L1338 460Q1311 541 1250 541Q1196 541 1169 479.5Q1142 418 1142 308ZM1250 75Q1304 75 1331 135.5Q1358 196 1358 308Q1358 347 1354 381L1162 154Q1189 75 1250 75Z" />
  <path
     d="M1557 0V623H1671V92H1957V0Z" />
</g><rect
   style="fill:#000000;fill-opacity:1;fill-rule:evenodd;stroke-width:10.9257"
   id="rect6771"
   width="273.80896"
   height="226.31868"
   x="119.096"
   y="85.333328" /><g
   id="g6948"
   transform="translate(-1436.4127,-574.38095)"><path
     fill="#333333"
     d="m 1610.7954,840.06136 75.9265,-63.66748 c 1.5422,-1.26543 1.5422,-3.5986 0,-4.86404 l -75.9265,-63.62791 c -2.0479,-1.74136 -5.195,-0.2759 -5.1803,2.41224 v 24.79472 c 0,0.94908 0.3953,1.81907 1.1469,2.41225 l 43.4204,36.46049 -43.4204,36.46051 c -0.7153,0.59872 -1.1341,1.47951 -1.1469,2.41223 v 24.79473 c 0,2.68906 3.124,4.15223 5.1803,2.41226 z m 81.5178,-2.41226 c 0,1.74 1.3444,3.16361 2.9657,3.16361 h 87.5711 c 1.6211,0 2.9658,-1.42361 2.9658,-3.16361 v -13.88638 c 0,-1.73997 -1.3447,-3.16359 -2.9658,-3.16359 h -87.5711 c -1.6213,0 -2.9657,1.42362 -2.9657,3.16359 z"
     id="path6935"
     style="fill:#ffffff;stroke-width:0.39545"
     sodipodi:nodetypes="cccccsccccscsssssssss" /></g></svg>
